<svg width="27" height="26" viewBox="0 0 27 26" fill="none" xmlns="http://www.w3.org/2000/svg">
<g clip-path="url(#clip0_170_1601)">
<path fill-rule="evenodd" clip-rule="evenodd" d="M26.1519 13.3316C26.1519 12.4129 26.0694 11.5295 25.9163 10.6814H13.7134V15.6933H20.6865C20.3861 17.3129 19.4733 18.6851 18.101 19.6039V22.8549H22.2884C24.7384 20.5992 26.1519 17.2776 26.1519 13.3316Z" fill="#4285F4"/>
<path fill-rule="evenodd" clip-rule="evenodd" d="M13.7139 25.9947C17.2122 25.9947 20.1452 24.8345 22.2889 22.8557L18.1015 19.6047C16.9413 20.3821 15.4572 20.8415 13.7139 20.8415C10.3392 20.8415 7.48287 18.5623 6.46399 15.4998H2.13525V18.8567C4.26723 23.0912 8.64898 25.9947 13.7139 25.9947Z" fill="#34A853"/>
<path fill-rule="evenodd" clip-rule="evenodd" d="M6.46419 15.4995C6.20506 14.7221 6.05782 13.8917 6.05782 13.0378C6.05782 12.1838 6.20506 11.3534 6.46419 10.576V7.21899H2.13545C1.25793 8.96816 0.757324 10.947 0.757324 13.0378C0.757324 15.1285 1.25793 17.1074 2.13545 18.8565L6.46419 15.4995Z" fill="#FBBC05"/>
<path fill-rule="evenodd" clip-rule="evenodd" d="M13.7139 5.23407C15.6162 5.23407 17.3241 5.8878 18.6669 7.1717L22.3832 3.45546C20.1393 1.36471 17.2063 0.0808105 13.7139 0.0808105C8.64898 0.0808105 4.26723 2.9843 2.13525 7.21881L6.46399 10.5758C7.48287 7.51328 10.3392 5.23407 13.7139 5.23407Z" fill="#EA4335"/>
</g>
<defs>
<clipPath id="clip0_170_1601">
<rect x="0.757324" y="0.0808105" width="25.9135" height="25.9135" rx="5.02175" fill="white"/>
</clipPath>
</defs>
</svg>
