<svg width="32" height="32" viewBox="0 0 32 32" fill="none" xmlns="http://www.w3.org/2000/svg">
<g id="Property 1=star_border">
<path id="icon" d="M28.3725 14.5384C29.7201 13.3842 29.0091 11.1771 27.2411 11.0266L20.496 10.4526L17.8386 4.2746C17.1446 2.66113 14.8568 2.66176 14.1637 4.27561L11.504 10.4684L4.77466 11.0318C3.00431 11.18 2.29156 13.3906 3.6419 14.545L8.736 18.9L7.19804 25.4059C6.79168 27.1248 8.65028 28.4882 10.1678 27.5843L16 24.1105L21.8399 27.5889C23.3563 28.4921 25.214 27.1314 24.8103 25.4131L23.28 18.9L28.3725 14.5384ZM16 21.1579L9.984 24.7421L11.584 17.9842L6.272 13.4368L13.28 12.8368L16 6.47368L18.736 12.8526L25.744 13.4526L20.432 18L22.032 24.7579L16 21.1579Z" fill="#FFA723"/>
</g>
</svg>
