<svg width="32" height="32" viewBox="0 0 32 32" fill="none" xmlns="http://www.w3.org/2000/svg">
<g id="Icons">
<path id="icon" d="M14.9766 24.7201C15.6072 24.3445 16.3928 24.3445 17.0235 24.7201L21.8322 27.5843C23.3497 28.4882 25.2083 27.1248 24.802 25.4059L23.5447 20.0874C23.3723 19.3583 23.622 18.594 24.1914 18.1071L28.3581 14.545C29.7084 13.3906 28.9957 11.18 27.2253 11.0318L21.6929 10.5686C20.9563 10.507 20.3137 10.044 20.022 9.36485L17.8377 4.27883C17.1444 2.6645 14.8556 2.66451 14.1623 4.27884L11.978 9.36485C11.6863 10.044 11.0437 10.507 10.3071 10.5686L4.77466 11.0318C3.00431 11.18 2.29156 13.3906 3.6419 14.545L7.80856 18.1071C8.37805 18.594 8.62766 19.3583 8.45529 20.0874L7.19804 25.4059C6.79168 27.1248 8.65028 28.4882 10.1678 27.5843L14.9766 24.7201Z" fill="#FFD15C"/>
</g>
</svg>
