<svg width="114" height="114" viewBox="0 0 114 114" fill="none" xmlns="http://www.w3.org/2000/svg">
<rect width="114" height="114" fill="#EEEEEE"/>
<g clip-path="url(#clip0_129_1352)">
<rect width="1920" height="1080" transform="translate(-903 -376)" fill="white"/>
<path d="M-306.5 -56C-306.5 -60.1421 -303.142 -63.5 -299 -63.5H413C417.142 -63.5 420.5 -60.1421 420.5 -56V358C420.5 362.142 417.142 365.5 413 365.5H-299C-303.142 365.5 -306.5 362.142 -306.5 358V-56Z" fill="#F6F8FA" stroke="#D8DEE4"/>
<circle cx="57" cy="57" r="57" fill="#FFD15C"/>
<path d="M78.3101 40.2706C76.8456 38.8062 74.4713 38.8061 73.0068 40.2705L50.0258 63.2507C49.5376 63.7388 48.7462 63.7389 48.258 63.2507L39.4192 54.4126C37.9547 52.9482 35.5803 52.9483 34.1159 54.4127C32.6515 55.8772 32.6514 58.2516 34.1159 59.7161L46.4903 72.0904C47.9547 73.5549 50.3291 73.5549 51.7936 72.0904L78.3101 45.5739C79.7746 44.1094 79.7745 41.7351 78.3101 40.2706Z" fill="#3166FF"/>
</g>
<defs>
<clipPath id="clip0_129_1352">
<rect width="1920" height="1080" fill="white" transform="translate(-903 -376)"/>
</clipPath>
</defs>
</svg>
