<svg width="48" height="48" viewBox="0 0 48 48" fill="none" xmlns="http://www.w3.org/2000/svg">
<g id="Group">
<path id="Vector" d="M24 1.5C11.5733 1.5 1.5 11.5733 1.5 24C1.5 36.4267 11.5733 46.5 24 46.5C36.4267 46.5 46.5 36.4267 46.5 24C46.5 11.5733 36.4267 1.5 24 1.5Z" stroke="#BDBDBD" stroke-width="3" stroke-linecap="round" stroke-linejoin="round"/>
<path id="Vector_2" d="M6.60986 38.2785C6.60986 38.2785 11.6251 31.875 24.0001 31.875C36.3751 31.875 41.3926 38.2785 41.3926 38.2785M24.0001 24C25.7903 24 27.5072 23.2888 28.7731 22.023C30.039 20.7571 30.7501 19.0402 30.7501 17.25C30.7501 15.4598 30.039 13.7429 28.7731 12.477C27.5072 11.2112 25.7903 10.5 24.0001 10.5C22.2099 10.5 20.493 11.2112 19.2271 12.477C17.9613 13.7429 17.2501 15.4598 17.2501 17.25C17.2501 19.0402 17.9613 20.7571 19.2271 22.023C20.493 23.2888 22.2099 24 24.0001 24Z" stroke="#BDBDBD" stroke-width="3" stroke-linecap="round" stroke-linejoin="round"/>
</g>
</svg>
