<svg width="88" height="88" viewBox="0 0 88 88" fill="none" xmlns="http://www.w3.org/2000/svg">
<g id="Group">
<path id="Vector" d="M43.9999 2.33301C20.9874 2.33301 2.33325 20.9872 2.33325 43.9997C2.33325 67.0122 20.9874 85.6663 43.9999 85.6663C67.0124 85.6663 85.6666 67.0122 85.6666 43.9997C85.6666 20.9872 67.0124 2.33301 43.9999 2.33301Z" fill="white" stroke="#BDBDBD" stroke-width="4" stroke-linecap="round" stroke-linejoin="round"/>
<g id="Vector_2">
<path d="M11.7957 70.4417C11.7957 70.4417 21.0832 58.5833 43.9998 58.5833C66.9165 58.5833 76.2081 70.4417 76.2081 70.4417M43.9998 44C47.315 44 50.4944 42.683 52.8386 40.3388C55.1829 37.9946 56.4998 34.8152 56.4998 31.5C56.4998 28.1848 55.1829 25.0054 52.8386 22.6612C50.4944 20.317 47.315 19 43.9998 19C40.6846 19 37.5052 20.317 35.161 22.6612C32.8168 25.0054 31.4998 28.1848 31.4998 31.5C31.4998 34.8152 32.8168 37.9946 35.161 40.3388C37.5052 42.683 40.6846 44 43.9998 44Z" fill="white"/>
<path d="M11.7957 70.4417C11.7957 70.4417 21.0832 58.5833 43.9998 58.5833C66.9165 58.5833 76.2081 70.4417 76.2081 70.4417M43.9998 44C47.315 44 50.4944 42.683 52.8387 40.3388C55.1829 37.9946 56.4998 34.8152 56.4998 31.5C56.4998 28.1848 55.1829 25.0054 52.8387 22.6612C50.4944 20.317 47.315 19 43.9998 19C40.6846 19 37.5052 20.317 35.161 22.6612C32.8168 25.0054 31.4998 28.1848 31.4998 31.5C31.4998 34.8152 32.8168 37.9946 35.161 40.3388C37.5052 42.683 40.6846 44 43.9998 44Z" stroke="#BDBDBD" stroke-width="4" stroke-linecap="round" stroke-linejoin="round"/>
</g>
</g>
</svg>
