<svg width="32" height="32" viewBox="0 0 32 32" fill="none" xmlns="http://www.w3.org/2000/svg">
<g id="Icon / search">
<path id="Vector (Stroke)" fill-rule="evenodd" clip-rule="evenodd" d="M10.0745 3.57997C11.5304 2.9769 13.0909 2.6665 14.6668 2.6665C16.2427 2.6665 17.8031 2.9769 19.2591 3.57997C20.715 4.18304 22.0379 5.06697 23.1523 6.1813C24.2666 7.29563 25.1505 8.61853 25.7536 10.0745C26.3567 11.5304 26.6671 13.0909 26.6671 14.6668C26.6671 16.2427 26.3567 17.8031 25.7536 19.2591C25.3213 20.3026 24.7448 21.2779 24.0425 22.1569L28.9429 27.0573C29.4636 27.578 29.4636 28.4222 28.9429 28.9429C28.4222 29.4636 27.578 29.4636 27.0573 28.9429L22.1569 24.0426C20.0406 25.7334 17.4018 26.6671 14.6668 26.6671C11.4841 26.6671 8.43179 25.4027 6.1813 23.1523C3.93081 20.9018 2.6665 17.8494 2.6665 14.6668C2.6665 11.4841 3.93081 8.43179 6.1813 6.1813C7.29563 5.06697 8.61853 4.18304 10.0745 3.57997ZM14.6668 5.33317C13.4411 5.33317 12.2274 5.57459 11.095 6.04365C9.96256 6.51271 8.93363 7.20022 8.06692 8.06692C6.31653 9.81731 5.33317 12.1914 5.33317 14.6668C5.33317 17.1422 6.31653 19.5162 8.06692 21.2666C9.81731 23.017 12.1914 24.0004 14.6668 24.0004C17.1422 24.0004 19.5162 23.017 21.2666 21.2666C22.1333 20.3999 22.8208 19.371 23.2899 18.2386C23.759 17.1062 24.0004 15.8925 24.0004 14.6668C24.0004 13.4411 23.759 12.2274 23.2899 11.095C22.8209 9.96256 22.1333 8.93363 21.2666 8.06692C20.3999 7.20022 19.371 6.51271 18.2386 6.04365C17.1062 5.57459 15.8925 5.33317 14.6668 5.33317Z" fill="#212121"/>
</g>
</svg>
